<svg width="80" height="81" viewBox="0 0 80 81" fill="none" xmlns="http://www.w3.org/2000/svg">
<path d="M80 15.44L61.6 0L56.44 6.12L74.84 21.56L80 15.44ZM23.52 6.12L18.4 0L0 15.4L5.16 21.52L23.52 6.12ZM42 24.56H36V48.56L55 59.96L58 55.04L42 45.56V24.56ZM40 8.56C20.12 8.56 4 24.68 4 44.56C4 64.44 20.08 80.56 40 80.56C59.88 80.56 76 64.44 76 44.56C76 24.68 59.88 8.56 40 8.56ZM40 72.56C24.52 72.56 12 60.04 12 44.56C12 29.08 24.52 16.56 40 16.56C55.48 16.56 68 29.08 68 44.56C68 60.04 55.48 72.56 40 72.56Z" fill="#272C6F"/>
</svg>
