<svg width="96" height="72" viewBox="0 0 96 72" fill="none" xmlns="http://www.w3.org/2000/svg">
<path d="M88 0H8C3.6 0 0 3.6 0 8V64C0 68.4 3.6 72 8 72H88C92.4 72 95.96 68.4 95.96 64L96 8C96 3.6 92.4 0 88 0ZM32 12C38.64 12 44 17.36 44 24C44 30.64 38.64 36 32 36C25.36 36 20 30.64 20 24C20 17.36 25.36 12 32 12ZM56 60H8V56C8 48 24 43.6 32 43.6C40 43.6 56 48 56 56V60ZM71.4 44H77.96L84 52L76.04 59.96C70.8 56.04 66.92 50.44 65.12 44C64.4 41.44 64 38.76 64 36C64 33.24 64.4 30.56 65.12 28C66.92 21.52 70.8 15.96 76.04 12.04L84 20L77.96 28H71.4C70.52 30.52 70 33.2 70 36C70 38.8 70.52 41.48 71.4 44Z" fill="#BD2E32"/>
</svg>
