<svg width="22" height="12" viewBox="0 0 22 12" fill="none" xmlns="http://www.w3.org/2000/svg">
<path fill-rule="evenodd" clip-rule="evenodd" d="M0.606035 0.0811114C1.11366 -0.136444 1.70154 0.0987073 1.9191 0.606337L0.999954 1.00026C1.9191 0.606337 1.91924 0.606663 1.9191 0.606337L1.91858 0.605136C1.9183 0.604488 1.91851 0.604961 1.91858 0.605136L1.9225 0.614003C1.92651 0.623016 1.93339 0.638334 1.94319 0.659537C1.96278 0.701958 1.99397 0.767837 2.03696 0.853824C2.12302 1.02595 2.25594 1.27771 2.43737 1.58252C2.80137 2.19404 3.35439 3.0085 4.10775 3.81981C4.28532 4.01104 4.47324 4.20135 4.67173 4.38831C4.68003 4.39585 4.68823 4.40355 4.69633 4.41142C6.18102 5.80166 8.25227 7.00026 11 7.00026C12.2089 7.00026 13.2783 6.76944 14.2209 6.39844C15.4469 5.91588 16.4745 5.18938 17.3156 4.39996C18.2652 3.50864 18.9627 2.55029 19.4232 1.81125C19.6526 1.44317 19.8207 1.13343 19.9299 0.919344C19.9844 0.812412 20.0241 0.729682 20.0491 0.675864C20.0617 0.648965 20.0706 0.629324 20.0758 0.617531L20.0808 0.606337C20.2985 0.098984 20.8864 -0.136387 21.3939 0.0811113C21.9015 0.298667 22.1367 0.886546 21.9191 1.39418L21 1.00026C21.9191 1.39418 21.9192 1.39395 21.9191 1.39418L21.9169 1.3992L21.9134 1.40742L21.9019 1.43326C21.8924 1.45459 21.879 1.48403 21.8618 1.52097C21.8274 1.59482 21.7774 1.6988 21.7115 1.82799C21.5799 2.08615 21.384 2.44633 21.1206 2.86893C20.718 3.51508 20.152 4.31645 19.4096 5.12455L20.2071 5.92199C20.5976 6.31251 20.5976 6.94568 20.2071 7.3362C19.8165 7.72673 19.1834 7.72673 18.7928 7.3362L17.9527 6.49603C17.3884 6.95176 16.757 7.38162 16.0558 7.75245L16.8381 8.95487C17.1393 9.41779 17.0083 10.0372 16.5453 10.3384C16.0824 10.6397 15.463 10.5086 15.1618 10.0456L14.1763 8.53112C13.4973 8.73926 12.772 8.88678 12 8.95592V10.5003C12 11.0525 11.5522 11.5003 11 11.5003C10.4477 11.5003 9.99995 11.0525 9.99995 10.5003V8.95606C9.22531 8.88687 8.50014 8.73906 7.82334 8.53152L6.83814 10.0456C6.53693 10.5086 5.91748 10.6397 5.45457 10.3384C4.99165 10.0372 4.86056 9.41779 5.16177 8.95487L5.94417 7.75242C5.24405 7.38189 4.61245 6.95203 4.04746 6.4958L3.20706 7.3362C2.81654 7.72673 2.18337 7.72673 1.79285 7.3362C1.40232 6.94568 1.40232 6.31251 1.79285 5.92199L2.59029 5.12455C1.74529 4.20479 1.12772 3.29249 0.718786 2.60549C0.509597 2.25405 0.353449 1.95894 0.248105 1.74825C0.195395 1.64283 0.15529 1.55832 0.127521 1.4982C0.113634 1.46814 0.10282 1.44415 0.0950486 1.42667L0.0856639 1.40539L0.082672 1.3985L0.0815994 1.39602L0.0811689 1.39502C0.080983 1.39458 0.0808088 1.39418 0.999954 1.00026L0.0811689 1.39502C-0.136387 0.887385 0.0984047 0.298667 0.606035 0.0811114Z" fill="#C2C2C2"/>
</svg>
